<svg width="256" height="64" viewBox="0 0 256 64" fill="none" xmlns="http://www.w3.org/2000/svg">
<rect width="256" height="64" fill="#074CA1"/>
<path d="M52 39.8281V43H42.5469V39.8281H52ZM43.5469 20.25V43H39.75V20.25H43.5469ZM58.5938 26.0938V43H54.9531V26.0938H58.5938ZM54.7656 21.6719C54.7656 21.0885 54.9427 20.6042 55.2969 20.2188C55.651 19.8229 56.1458 19.625 56.7812 19.625C57.4167 19.625 57.9115 19.8229 58.2656 20.2188C58.6198 20.6042 58.7969 21.0885 58.7969 21.6719C58.7969 22.2344 58.6198 22.7083 58.2656 23.0938C57.9115 23.4792 57.4167 23.6719 56.7812 23.6719C56.1458 23.6719 55.651 23.4792 55.2969 23.0938C54.9427 22.7083 54.7656 22.2344 54.7656 21.6719ZM70.3125 38.5469C70.3125 38.1927 70.2083 37.8802 70 37.6094C69.8021 37.3281 69.4792 37.0521 69.0312 36.7812C68.5833 36.5104 67.9844 36.2188 67.2344 35.9062C66.4531 35.5833 65.7604 35.2604 65.1562 34.9375C64.5521 34.6146 64.0417 34.2604 63.625 33.875C63.2083 33.4792 62.8906 33.026 62.6719 32.5156C62.4531 32.0052 62.3438 31.4115 62.3438 30.7344C62.3438 30.0365 62.474 29.3906 62.7344 28.7969C62.9948 28.2031 63.3698 27.6823 63.8594 27.2344C64.349 26.776 64.9375 26.4219 65.625 26.1719C66.3125 25.9115 67.0885 25.7812 67.9531 25.7812C69.1719 25.7812 70.2135 26.0052 71.0781 26.4531C71.9531 26.8906 72.6198 27.5052 73.0781 28.2969C73.5469 29.0781 73.7812 29.9792 73.7812 31H70.1406C70.1406 30.5729 70.0625 30.1875 69.9062 29.8438C69.75 29.4896 69.5104 29.2083 69.1875 29C68.8646 28.7812 68.4531 28.6719 67.9531 28.6719C67.4948 28.6719 67.1094 28.7604 66.7969 28.9375C66.4948 29.1042 66.2656 29.3333 66.1094 29.625C65.9635 29.9062 65.8906 30.224 65.8906 30.5781C65.8906 30.8385 65.9375 31.0677 66.0312 31.2656C66.125 31.4635 66.2812 31.6562 66.5 31.8438C66.7188 32.0208 67.0104 32.2031 67.375 32.3906C67.75 32.5781 68.224 32.7917 68.7969 33.0312C69.9323 33.4688 70.875 33.9219 71.625 34.3906C72.375 34.8594 72.9375 35.4062 73.3125 36.0312C73.6875 36.6562 73.875 37.4323 73.875 38.3594C73.875 39.1094 73.7344 39.7865 73.4531 40.3906C73.1823 40.9948 72.7865 41.5156 72.2656 41.9531C71.7552 42.3906 71.1354 42.7292 70.4062 42.9688C69.6875 43.1979 68.8854 43.3125 68 43.3125C66.6771 43.3125 65.5573 43.0521 64.6406 42.5312C63.7344 42 63.0469 41.3177 62.5781 40.4844C62.1094 39.651 61.875 38.7708 61.875 37.8438H65.3906C65.4219 38.5104 65.5625 39.0312 65.8125 39.4062C66.0729 39.7812 66.401 40.0417 66.7969 40.1875C67.1927 40.3229 67.6042 40.3906 68.0312 40.3906C68.5417 40.3906 68.9635 40.3229 69.2969 40.1875C69.6302 40.0417 69.8802 39.8281 70.0469 39.5469C70.224 39.2656 70.3125 38.9323 70.3125 38.5469ZM80.6875 29.3438V49.5H77.0625V26.0938H80.3906L80.6875 29.3438ZM89.7812 33.875V35.2188C89.7812 36.5417 89.6615 37.7083 89.4219 38.7188C89.1823 39.7292 88.8281 40.5781 88.3594 41.2656C87.901 41.9427 87.3333 42.4531 86.6562 42.7969C85.9792 43.1406 85.1875 43.3125 84.2812 43.3125C83.4271 43.3125 82.6823 43.125 82.0469 42.75C81.4219 42.375 80.8958 41.849 80.4688 41.1719C80.0417 40.4948 79.6979 39.6927 79.4375 38.7656C79.1875 37.8281 79.0052 36.8073 78.8906 35.7031V33.6406C79.0052 32.474 79.1823 31.4115 79.4219 30.4531C79.6719 29.4844 80.0104 28.651 80.4375 27.9531C80.875 27.2552 81.4062 26.7188 82.0312 26.3438C82.6562 25.9688 83.401 25.7812 84.2656 25.7812C85.1719 25.7812 85.9688 25.9427 86.6562 26.2656C87.3438 26.5885 87.9167 27.0833 88.375 27.75C88.8438 28.4167 89.1927 29.2604 89.4219 30.2812C89.6615 31.2917 89.7812 32.4896 89.7812 33.875ZM86.1406 35.2188V33.875C86.1406 33.0104 86.0833 32.2656 85.9688 31.6406C85.8646 31.0052 85.6875 30.4844 85.4375 30.0781C85.1979 29.6719 84.8906 29.3698 84.5156 29.1719C84.151 28.974 83.6979 28.875 83.1562 28.875C82.6771 28.875 82.2552 28.974 81.8906 29.1719C81.526 29.3698 81.2188 29.6458 80.9688 30C80.7188 30.3438 80.5208 30.7552 80.375 31.2344C80.2292 31.7031 80.1354 32.2135 80.0938 32.7656V36.5938C80.1875 37.2604 80.3438 37.875 80.5625 38.4375C80.7812 38.9896 81.099 39.4323 81.5156 39.7656C81.9427 40.099 82.5 40.2656 83.1875 40.2656C83.7188 40.2656 84.1719 40.1615 84.5469 39.9531C84.9219 39.7448 85.224 39.4323 85.4531 39.0156C85.6927 38.599 85.8646 38.0781 85.9688 37.4531C86.0833 36.8177 86.1406 36.0729 86.1406 35.2188ZM110.312 37.125C110.312 36.6562 110.26 36.2396 110.156 35.875C110.062 35.5 109.88 35.1615 109.609 34.8594C109.339 34.5573 108.953 34.2604 108.453 33.9688C107.964 33.6771 107.328 33.3802 106.547 33.0781C105.651 32.7344 104.812 32.3594 104.031 31.9531C103.26 31.5365 102.578 31.0677 101.984 30.5469C101.401 30.0156 100.943 29.3958 100.609 28.6875C100.276 27.9792 100.109 27.1562 100.109 26.2188C100.109 25.2917 100.271 24.4479 100.594 23.6875C100.927 22.9167 101.396 22.2552 102 21.7031C102.615 21.1406 103.344 20.7083 104.188 20.4062C105.031 20.0938 105.964 19.9375 106.984 19.9375C108.453 19.9375 109.708 20.25 110.75 20.875C111.802 21.5 112.604 22.3385 113.156 23.3906C113.719 24.4427 114 25.6094 114 26.8906H110.219C110.219 26.151 110.104 25.4948 109.875 24.9219C109.646 24.349 109.292 23.901 108.812 23.5781C108.333 23.2552 107.714 23.0938 106.953 23.0938C106.255 23.0938 105.677 23.2292 105.219 23.5C104.771 23.7708 104.438 24.1406 104.219 24.6094C104.01 25.0781 103.906 25.6146 103.906 26.2188C103.906 26.6354 103.995 27.0156 104.172 27.3594C104.349 27.6927 104.604 28 104.938 28.2812C105.271 28.5625 105.677 28.8281 106.156 29.0781C106.635 29.3281 107.188 29.5677 107.812 29.7969C108.875 30.1823 109.802 30.6094 110.594 31.0781C111.385 31.5469 112.036 32.0729 112.547 32.6562C113.068 33.2292 113.453 33.8802 113.703 34.6094C113.964 35.3385 114.094 36.1667 114.094 37.0938C114.094 38.0312 113.932 38.8854 113.609 39.6562C113.297 40.4167 112.839 41.0677 112.234 41.6094C111.63 42.151 110.901 42.5729 110.047 42.875C109.193 43.1667 108.234 43.3125 107.172 43.3125C106.193 43.3125 105.25 43.1667 104.344 42.875C103.448 42.5833 102.646 42.1406 101.938 41.5469C101.229 40.9427 100.667 40.1875 100.25 39.2812C99.8438 38.375 99.6406 37.3125 99.6406 36.0938H103.438C103.438 36.8229 103.526 37.4479 103.703 37.9688C103.88 38.4792 104.135 38.901 104.469 39.2344C104.812 39.5573 105.214 39.7969 105.672 39.9531C106.141 40.099 106.661 40.1719 107.234 40.1719C107.943 40.1719 108.521 40.0469 108.969 39.7969C109.427 39.5365 109.766 39.1771 109.984 38.7188C110.203 38.2604 110.312 37.7292 110.312 37.125ZM116.672 35.2344V33.875C116.672 32.5625 116.833 31.401 117.156 30.3906C117.479 29.3802 117.938 28.5365 118.531 27.8594C119.135 27.1719 119.844 26.6562 120.656 26.3125C121.469 25.9583 122.365 25.7812 123.344 25.7812C124.344 25.7812 125.25 25.9583 126.062 26.3125C126.885 26.6562 127.594 27.1719 128.188 27.8594C128.792 28.5365 129.255 29.3802 129.578 30.3906C129.901 31.401 130.062 32.5625 130.062 33.875V35.2344C130.062 36.5469 129.901 37.7083 129.578 38.7188C129.255 39.7292 128.792 40.5781 128.188 41.2656C127.594 41.9427 126.891 42.4531 126.078 42.7969C125.266 43.1406 124.365 43.3125 123.375 43.3125C122.396 43.3125 121.495 43.1406 120.672 42.7969C119.859 42.4531 119.151 41.9427 118.547 41.2656C117.943 40.5781 117.479 39.7292 117.156 38.7188C116.833 37.7083 116.672 36.5469 116.672 35.2344ZM120.312 33.875V35.2344C120.312 36.0781 120.385 36.8177 120.531 37.4531C120.677 38.0781 120.885 38.599 121.156 39.0156C121.427 39.4323 121.75 39.7448 122.125 39.9531C122.5 40.1615 122.917 40.2656 123.375 40.2656C123.885 40.2656 124.328 40.1615 124.703 39.9531C125.089 39.7448 125.406 39.4323 125.656 39.0156C125.917 38.599 126.109 38.0781 126.234 37.4531C126.359 36.8177 126.422 36.0781 126.422 35.2344V33.875C126.422 33.0417 126.349 32.3125 126.203 31.6875C126.057 31.0521 125.849 30.526 125.578 30.1094C125.307 29.6823 124.979 29.3646 124.594 29.1562C124.219 28.9479 123.802 28.8438 123.344 28.8438C122.896 28.8438 122.484 28.9479 122.109 29.1562C121.745 29.3646 121.427 29.6823 121.156 30.1094C120.885 30.526 120.677 31.0521 120.531 31.6875C120.385 32.3125 120.312 33.0417 120.312 33.875ZM137.062 19V43H133.422V19H137.062ZM149.297 39.0156V26.0938H152.938V43H149.5L149.297 39.0156ZM149.812 35.4844L150.969 35.4531C150.969 36.5885 150.865 37.6354 150.656 38.5938C150.448 39.5521 150.125 40.3854 149.688 41.0938C149.26 41.7917 148.703 42.3385 148.016 42.7344C147.339 43.1198 146.526 43.3125 145.578 43.3125C144.88 43.3125 144.24 43.1927 143.656 42.9531C143.083 42.7135 142.589 42.3438 142.172 41.8438C141.766 41.3438 141.448 40.6927 141.219 39.8906C140.99 39.0885 140.875 38.1302 140.875 37.0156V26.0938H144.516V37.0469C144.516 37.651 144.568 38.1562 144.672 38.5625C144.776 38.9583 144.922 39.2812 145.109 39.5312C145.297 39.7708 145.505 39.9427 145.734 40.0469C145.974 40.1406 146.229 40.1875 146.5 40.1875C147.323 40.1875 147.974 39.9844 148.453 39.5781C148.943 39.1615 149.292 38.599 149.5 37.8906C149.708 37.1823 149.812 36.3802 149.812 35.4844ZM163.406 26.0938V28.9062H155.109V26.0938H163.406ZM157.375 21.9531H161V38.2812C161 38.8021 161.057 39.1979 161.172 39.4688C161.286 39.7396 161.448 39.9219 161.656 40.0156C161.865 40.1094 162.109 40.1562 162.391 40.1562C162.599 40.1562 162.802 40.1406 163 40.1094C163.208 40.0677 163.359 40.0312 163.453 40V42.9375C163.182 43.0417 162.87 43.1302 162.516 43.2031C162.161 43.276 161.734 43.3125 161.234 43.3125C160.495 43.3125 159.833 43.1615 159.25 42.8594C158.667 42.5469 158.208 42.0417 157.875 41.3438C157.542 40.6354 157.375 39.6979 157.375 38.5312V21.9531ZM170.094 26.0938V43H166.453V26.0938H170.094ZM166.266 21.6719C166.266 21.0885 166.443 20.6042 166.797 20.2188C167.151 19.8229 167.646 19.625 168.281 19.625C168.917 19.625 169.411 19.8229 169.766 20.2188C170.12 20.6042 170.297 21.0885 170.297 21.6719C170.297 22.2344 170.12 22.7083 169.766 23.0938C169.411 23.4792 168.917 23.6719 168.281 23.6719C167.646 23.6719 167.151 23.4792 166.797 23.0938C166.443 22.7083 166.266 22.2344 166.266 21.6719ZM173.453 35.2344V33.875C173.453 32.5625 173.615 31.401 173.938 30.3906C174.26 29.3802 174.719 28.5365 175.312 27.8594C175.917 27.1719 176.625 26.6562 177.438 26.3125C178.25 25.9583 179.146 25.7812 180.125 25.7812C181.125 25.7812 182.031 25.9583 182.844 26.3125C183.667 26.6562 184.375 27.1719 184.969 27.8594C185.573 28.5365 186.036 29.3802 186.359 30.3906C186.682 31.401 186.844 32.5625 186.844 33.875V35.2344C186.844 36.5469 186.682 37.7083 186.359 38.7188C186.036 39.7292 185.573 40.5781 184.969 41.2656C184.375 41.9427 183.672 42.4531 182.859 42.7969C182.047 43.1406 181.146 43.3125 180.156 43.3125C179.177 43.3125 178.276 43.1406 177.453 42.7969C176.641 42.4531 175.932 41.9427 175.328 41.2656C174.724 40.5781 174.26 39.7292 173.938 38.7188C173.615 37.7083 173.453 36.5469 173.453 35.2344ZM177.094 33.875V35.2344C177.094 36.0781 177.167 36.8177 177.312 37.4531C177.458 38.0781 177.667 38.599 177.938 39.0156C178.208 39.4323 178.531 39.7448 178.906 39.9531C179.281 40.1615 179.698 40.2656 180.156 40.2656C180.667 40.2656 181.109 40.1615 181.484 39.9531C181.87 39.7448 182.188 39.4323 182.438 39.0156C182.698 38.599 182.891 38.0781 183.016 37.4531C183.141 36.8177 183.203 36.0781 183.203 35.2344V33.875C183.203 33.0417 183.13 32.3125 182.984 31.6875C182.839 31.0521 182.63 30.526 182.359 30.1094C182.089 29.6823 181.76 29.3646 181.375 29.1562C181 28.9479 180.583 28.8438 180.125 28.8438C179.677 28.8438 179.266 28.9479 178.891 29.1562C178.526 29.3646 178.208 29.6823 177.938 30.1094C177.667 30.526 177.458 31.0521 177.312 31.6875C177.167 32.3125 177.094 33.0417 177.094 33.875ZM193.578 29.7031V43H189.938V26.0938H193.359L193.578 29.7031ZM192.922 33.9375H191.766C191.755 32.7188 191.885 31.6094 192.156 30.6094C192.427 29.6094 192.812 28.75 193.312 28.0312C193.823 27.3125 194.427 26.7604 195.125 26.375C195.833 25.9792 196.62 25.7812 197.484 25.7812C198.151 25.7812 198.76 25.8958 199.312 26.125C199.875 26.3438 200.354 26.7031 200.75 27.2031C201.146 27.7031 201.448 28.3542 201.656 29.1562C201.875 29.9583 201.984 30.9375 201.984 32.0938V43H198.344V32.0625C198.344 31.2708 198.255 30.6458 198.078 30.1875C197.911 29.7188 197.661 29.3854 197.328 29.1875C196.995 28.9792 196.573 28.875 196.062 28.875C195.594 28.875 195.161 29.0104 194.766 29.2812C194.38 29.5417 194.047 29.9062 193.766 30.375C193.495 30.8333 193.286 31.3698 193.141 31.9844C192.995 32.5885 192.922 33.2396 192.922 33.9375ZM213.469 38.5469C213.469 38.1927 213.365 37.8802 213.156 37.6094C212.958 37.3281 212.635 37.0521 212.188 36.7812C211.74 36.5104 211.141 36.2188 210.391 35.9062C209.609 35.5833 208.917 35.2604 208.312 34.9375C207.708 34.6146 207.198 34.2604 206.781 33.875C206.365 33.4792 206.047 33.026 205.828 32.5156C205.609 32.0052 205.5 31.4115 205.5 30.7344C205.5 30.0365 205.63 29.3906 205.891 28.7969C206.151 28.2031 206.526 27.6823 207.016 27.2344C207.505 26.776 208.094 26.4219 208.781 26.1719C209.469 25.9115 210.245 25.7812 211.109 25.7812C212.328 25.7812 213.37 26.0052 214.234 26.4531C215.109 26.8906 215.776 27.5052 216.234 28.2969C216.703 29.0781 216.938 29.9792 216.938 31H213.297C213.297 30.5729 213.219 30.1875 213.062 29.8438C212.906 29.4896 212.667 29.2083 212.344 29C212.021 28.7812 211.609 28.6719 211.109 28.6719C210.651 28.6719 210.266 28.7604 209.953 28.9375C209.651 29.1042 209.422 29.3333 209.266 29.625C209.12 29.9062 209.047 30.224 209.047 30.5781C209.047 30.8385 209.094 31.0677 209.188 31.2656C209.281 31.4635 209.438 31.6562 209.656 31.8438C209.875 32.0208 210.167 32.2031 210.531 32.3906C210.906 32.5781 211.38 32.7917 211.953 33.0312C213.089 33.4688 214.031 33.9219 214.781 34.3906C215.531 34.8594 216.094 35.4062 216.469 36.0312C216.844 36.6562 217.031 37.4323 217.031 38.3594C217.031 39.1094 216.891 39.7865 216.609 40.3906C216.339 40.9948 215.943 41.5156 215.422 41.9531C214.911 42.3906 214.292 42.7292 213.562 42.9688C212.844 43.1979 212.042 43.3125 211.156 43.3125C209.833 43.3125 208.714 43.0521 207.797 42.5312C206.891 42 206.203 41.3177 205.734 40.4844C205.266 39.651 205.031 38.7708 205.031 37.8438H208.547C208.578 38.5104 208.719 39.0312 208.969 39.4062C209.229 39.7812 209.557 40.0417 209.953 40.1875C210.349 40.3229 210.76 40.3906 211.188 40.3906C211.698 40.3906 212.12 40.3229 212.453 40.1875C212.786 40.0417 213.036 39.8281 213.203 39.5469C213.38 39.2656 213.469 38.9323 213.469 38.5469Z" fill="white"/>
</svg>
